<svg width="45" height="45" viewBox="0 0 45 45" fill="none" xmlns="http://www.w3.org/2000/svg">
<g clip-path="url(#clip0_1_33)">
<path d="M5.85 22.725C5.85 32.0448 13.4052 39.6 22.725 39.6C22.725 22.725 22.725 22.725 39.6 22.725C39.6 13.4052 32.0448 5.84998 22.725 5.84998C22.725 22.725 22.725 22.725 5.85 22.725Z" fill="#00E600"/>
<path d="M6.42502 18.3574C4.01288 27.3596 9.35521 36.6128 18.3574 39.025C22.725 22.725 22.725 22.725 39.025 27.0925C41.4372 18.0903 36.0948 8.83711 27.0926 6.42497C22.725 22.725 22.725 22.725 6.42502 18.3574Z" fill="#00F000"/>
<path d="M8.11088 14.2875C3.45097 22.3586 6.21637 32.6792 14.2876 37.3391C22.7251 22.725 22.7251 22.725 37.3392 31.1625C41.9991 23.0913 39.2337 12.7707 31.1626 8.11078C22.7251 22.725 22.7251 22.725 8.11088 14.2875Z" fill="#33FF33"/>
<path d="M10.7926 10.7925C4.20246 17.3826 4.20246 28.0673 10.7926 34.6574C22.725 22.725 22.725 22.725 34.6574 34.6574C41.2475 28.0673 41.2475 17.3826 34.6574 10.7925C22.725 22.725 22.725 22.725 10.7926 10.7925Z" fill="#66FF66"/>
<path d="M11.7 9.9C3.62882 14.5599 3.45098 23.0914 8.11088 31.1626C22.7251 22.7251 25.3125 21.1607 33.75 35.7749C41.8212 31.115 41.9991 22.3587 37.3392 14.2875C22.7251 22.7251 20.1375 24.5142 11.7 9.9Z" fill="#99FF99"/>
<path d="M11.7653 9.80686C3.3187 13.7456 3.49239 21.4101 7.43111 29.8567C22.7251 22.725 22.7249 22.7249 33.6847 35.6431C42.1313 31.7043 41.9577 24.04 38.019 15.5933C22.7251 22.725 22.725 22.725 11.7653 9.80686Z" fill="#B3FFB3"/>
<path d="M22.725 5.84998C22.725 22.725 5.85 13.4052 5.85 22.725C22.725 22.725 22.725 22.725 22.725 39.6C22.725 22.725 39.6 32.0448 39.6 22.725C22.725 22.725 22.725 22.725 22.725 5.84998Z" fill="#CCFFCC"/>
</g>
<defs>
<clipPath id="clip0_1_33">
<rect width="45" height="45" fill="white"/>
</clipPath>
</defs>
</svg>
